P3
5 3
255
217 233 255
217 233 255
217 233 255
217 233 255
217 233 255
184 200 221
181 201 227
180 202 214
185 200 221
169 185 206
138 157 181
137 156 181
120 150 162
142 159 181
136 155 181
